<svg width="96" height="37" viewBox="0 0 96 37" fill="none" xmlns="http://www.w3.org/2000/svg">
<path d="M6.08 9.61134H5.368V5.28334H3.624V4.60334H5.368V2.40334H6.08V9.61134ZM4.288 6.93134L3.8 7.45134L2.152 5.82734C1.944 6.22734 1.69067 6.56334 1.392 6.83534C1.09867 7.10734 0.808 7.32334 0.52 7.48334L0.048 6.93934C0.362667 6.76867 0.629333 6.57667 0.848 6.36334C1.072 6.14467 1.256 5.91801 1.4 5.68334C1.53867 5.44334 1.64 5.20067 1.704 4.95534C1.77333 4.70467 1.808 4.45934 1.808 4.21934V3.13134H2.568V4.05134C2.568 4.24334 2.55467 4.42734 2.528 4.60334C2.50667 4.77401 2.47467 4.93934 2.432 5.09934L4.288 6.93134ZM12.2529 3.89134C12.2529 4.11534 12.2049 4.31801 12.1089 4.49934C12.0129 4.68067 11.8822 4.83801 11.7169 4.97134C11.5515 5.09934 11.3542 5.20067 11.1249 5.27534C10.9009 5.34467 10.6582 5.37934 10.3969 5.37934C10.1462 5.37934 9.91154 5.34734 9.69288 5.28334C9.47421 5.21401 9.27954 5.11534 9.10888 4.98734C8.94354 4.85934 8.81287 4.70467 8.71687 4.52334C8.62088 4.34201 8.57288 4.13401 8.57288 3.89934C8.57288 3.67001 8.61821 3.46201 8.70888 3.27534C8.80488 3.08334 8.93554 2.92067 9.10088 2.78734C9.26088 2.65401 9.45288 2.55267 9.67688 2.48334C9.90088 2.40867 10.1409 2.37134 10.3969 2.37134C10.6529 2.37134 10.8929 2.40867 11.1169 2.48334C11.3409 2.55267 11.5382 2.65401 11.7089 2.78734C11.8742 2.91534 12.0049 3.07534 12.1009 3.26734C12.2022 3.45401 12.2529 3.66201 12.2529 3.89134ZM13.8689 6.37134H10.8049V6.94734H12.3249V8.71534H9.38888V9.21134H12.5169V9.89134H8.64488V8.07534H11.5729V7.61134H8.60487V6.94734H10.0849V6.37134H7.08487V5.70734H13.8689V6.37134ZM11.5089 3.88334C11.5089 3.61134 11.3995 3.39534 11.1809 3.23534C10.9622 3.07534 10.7009 2.99534 10.3969 2.99534C10.0929 2.99534 9.83421 3.07534 9.62088 3.23534C9.40754 3.39001 9.30087 3.60601 9.30087 3.88334C9.30087 4.15534 9.40487 4.36867 9.61287 4.52334C9.82621 4.67267 10.0875 4.74734 10.3969 4.74734C10.7009 4.74734 10.9622 4.67534 11.1809 4.53134C11.3995 4.38734 11.5089 4.17134 11.5089 3.88334ZM19.624 5.69134H15.856V2.65934H19.576V3.32334H16.568V3.81934H19.48V4.49934H16.568V5.02734H19.624V5.69134ZM21.184 6.93134H14.328V6.25934H21.184V6.93134ZM19.64 9.97934H18.92V8.20334H15.824V7.53134H19.64V9.97934ZM27.5551 6.46734H26.8511V5.60334H25.3791V4.93934H26.8511V4.21134H25.3791V3.54734H26.8511V2.40334H27.5551V6.46734ZM25.0591 6.01934H21.9151V2.80334H22.6271V3.85134H24.3391V2.80334H25.0591V6.01934ZM27.4911 9.89134H23.6671V7.96334H26.5551V7.42734H23.6271V6.77134H27.2991V8.61934H24.4271V9.20334H27.4911V9.89134ZM24.3391 5.34734V4.52334H22.6271V5.34734H24.3391ZM34.44 9.61134H33.72V2.40334H34.44V9.61134ZM32.632 6.93134L32.144 7.45134L30.496 5.82734C30.288 6.22734 30.0347 6.56334 29.736 6.83534C29.4427 7.10734 29.152 7.32334 28.864 7.48334L28.392 6.93934C28.7067 6.76867 28.9733 6.57667 29.192 6.36334C29.416 6.14467 29.6 5.91801 29.744 5.68334C29.8827 5.44334 29.984 5.20067 30.048 4.95534C30.1173 4.70467 30.152 4.45934 30.152 4.21934V3.13134H30.912V4.05134C30.912 4.24334 30.8987 4.42734 30.872 4.60334C30.8507 4.77401 30.8187 4.93934 30.776 5.09934L32.632 6.93134Z" fill="white"/>
<path d="M15.714 23.6762H0.468V22.1822H7.236V20.3642H3.708V14.7662H5.328V18.9062H12.366V20.3642H8.874V22.1822H15.714V23.6762ZM12.15 28.1402C12.15 28.6442 12.042 29.1002 11.826 29.5082C11.622 29.9282 11.334 30.2882 10.962 30.5882C10.59 30.8882 10.152 31.1222 9.648 31.2902C9.144 31.4582 8.598 31.5422 8.01 31.5422C7.446 31.5422 6.918 31.4642 6.426 31.3082C5.934 31.1522 5.502 30.9302 5.13 30.6422C4.77 30.3422 4.482 29.9822 4.266 29.5622C4.05 29.1542 3.942 28.6862 3.942 28.1582C3.942 27.6422 4.044 27.1682 4.248 26.7362C4.452 26.3042 4.74 25.9382 5.112 25.6382C5.472 25.3382 5.898 25.1042 6.39 24.9362C6.894 24.7682 7.434 24.6842 8.01 24.6842C8.586 24.6842 9.126 24.7682 9.63 24.9362C10.134 25.1042 10.572 25.3382 10.944 25.6382C11.316 25.9382 11.61 26.3042 11.826 26.7362C12.042 27.1562 12.15 27.6242 12.15 28.1402ZM10.476 28.1222C10.476 27.5102 10.236 27.0182 9.756 26.6462C9.276 26.2742 8.694 26.0882 8.01 26.0882C7.326 26.0882 6.75 26.2742 6.282 26.6462C5.814 27.0062 5.58 27.4982 5.58 28.1222C5.58 28.7342 5.808 29.2202 6.264 29.5802C6.732 29.9402 7.314 30.1202 8.01 30.1202C8.694 30.1202 9.276 29.9462 9.756 29.5982C10.236 29.2622 10.476 28.7702 10.476 28.1222ZM30.121 23.7842H28.519V19.5362H25.243V18.0422H28.519V14.4782H30.121V23.7842ZM24.685 18.9782C24.685 19.5062 24.577 19.9982 24.361 20.4542C24.145 20.9102 23.857 21.3002 23.497 21.6242C23.137 21.9602 22.717 22.2242 22.237 22.4162C21.757 22.5962 21.253 22.6862 20.725 22.6862C20.197 22.6862 19.699 22.5902 19.231 22.3982C18.763 22.2062 18.355 21.9482 18.007 21.6242C17.659 21.2882 17.383 20.8982 17.179 20.4542C16.975 19.9982 16.873 19.5062 16.873 18.9782C16.873 18.4502 16.969 17.9642 17.161 17.5202C17.365 17.0642 17.641 16.6742 17.989 16.3502C18.325 16.0142 18.727 15.7562 19.195 15.5762C19.675 15.3842 20.185 15.2882 20.725 15.2882C21.277 15.2882 21.793 15.3782 22.273 15.5582C22.753 15.7382 23.173 15.9902 23.533 16.3142C23.893 16.6382 24.175 17.0282 24.379 17.4842C24.583 17.9282 24.685 18.4262 24.685 18.9782ZM29.761 31.2902H21.409V24.4322H23.065V26.4302H28.105V24.4322H29.761V31.2902ZM23.065 18.9782C23.065 18.3422 22.837 17.8142 22.381 17.3942C21.925 16.9742 21.373 16.7642 20.725 16.7642C20.089 16.7642 19.555 16.9742 19.123 17.3942C18.691 17.8142 18.475 18.3362 18.475 18.9602C18.475 19.6082 18.691 20.1422 19.123 20.5622C19.567 20.9822 20.101 21.1922 20.725 21.1922C21.349 21.1922 21.895 20.9882 22.363 20.5802C22.831 20.1602 23.065 19.6262 23.065 18.9782ZM28.105 29.7962V27.9242H23.065V29.7962H28.105ZM45.342 30.6962H43.722V14.4782H45.342V30.6962ZM40.536 16.7822C40.476 18.1022 40.194 19.2902 39.69 20.3462C39.198 21.4022 38.604 22.3322 37.908 23.1362C37.2 23.9402 36.444 24.6182 35.64 25.1702C34.836 25.7222 34.092 26.1422 33.408 26.4302L32.238 25.2782C33.042 24.9422 33.798 24.5282 34.506 24.0362C35.226 23.5442 35.868 22.9982 36.432 22.3982C37.008 21.7982 37.488 21.1502 37.872 20.4542C38.268 19.7582 38.544 19.0322 38.7 18.2762H33.336V16.7822H40.536ZM60.329 19.6082L59.303 20.8322C59.303 20.8322 59.243 20.7902 59.123 20.7062C59.003 20.6222 58.841 20.5142 58.637 20.3822C58.445 20.2382 58.223 20.0762 57.971 19.8962C57.719 19.7162 57.467 19.5362 57.215 19.3562C56.951 19.1642 56.693 18.9782 56.441 18.7982C56.189 18.6182 55.967 18.4622 55.775 18.3302C55.571 18.1862 55.409 18.0722 55.289 17.9882C55.181 17.9042 55.127 17.8622 55.127 17.8622C54.851 18.2462 54.533 18.6062 54.173 18.9422C53.825 19.2662 53.465 19.5602 53.093 19.8242C52.709 20.0762 52.325 20.2922 51.941 20.4722C51.557 20.6522 51.197 20.7842 50.861 20.8682L49.817 19.6082C50.573 19.3922 51.233 19.1102 51.797 18.7622C52.373 18.4022 52.847 18.0062 53.219 17.5742C53.603 17.1542 53.885 16.7162 54.065 16.2602C54.257 15.8042 54.353 15.3722 54.353 14.9642V14.4062H56.027V15.2162C56.027 15.4322 56.009 15.6482 55.973 15.8642C55.937 16.0682 55.889 16.2662 55.829 16.4582L60.329 19.6082ZM62.957 23.0822H56.135V24.5042H59.447V28.5722H52.931V29.7782H59.825V31.3262H51.239V27.1142H57.791V25.9802H51.149V24.5042H54.515V23.0822H47.729V21.6062H62.957V23.0822ZM78.48 26.1242H76.878V14.4782H78.48V26.1242ZM75.312 25.4222H73.692V19.7342H70.668V18.2402H73.692V14.8562H75.312V25.4222ZM72.324 22.8302L71.208 23.9462L68.166 20.8322C67.842 21.4682 67.392 22.0802 66.816 22.6682C66.252 23.2442 65.634 23.7122 64.962 24.0722L63.882 22.8842C64.314 22.7042 64.74 22.4342 65.16 22.0742C65.592 21.7142 65.982 21.2762 66.33 20.7602C66.666 20.2562 66.942 19.6802 67.158 19.0322C67.374 18.3842 67.482 17.6762 67.482 16.9082V15.3962H69.156V16.9082C69.156 17.2922 69.12 17.7062 69.048 18.1502C68.988 18.5822 68.904 18.9542 68.796 19.2662L72.324 22.8302ZM78.336 31.1462H69.606V25.5662H71.226V29.6342H78.336V31.1462ZM93.895 30.6962H92.275V21.8582H89.071V20.3462H92.275V14.4782H93.895V30.6962ZM89.305 25.9262H81.331V16.6382H88.477V18.1502H82.933V20.4182H88.279V21.9302H82.933V24.4142H89.305V25.9262Z" fill="#EEEDED"/>
</svg>
