<svg width="200" height="80" viewBox="0 0 200 80" fill="none" xmlns="http://www.w3.org/2000/svg">
<path d="M29.266 26.708H27.782V19.204H24.688V17.776H27.782V13.968H29.266V26.708ZM26.018 21.892L24.996 22.956L22.154 20.184C21.7807 20.8467 21.3327 21.4113 20.81 21.878C20.2967 22.3353 19.7833 22.7087 19.27 22.998L18.276 21.864C18.836 21.584 19.312 21.2573 19.704 20.884C20.1053 20.5107 20.432 20.1187 20.684 19.708C20.936 19.2973 21.118 18.8773 21.23 18.448C21.3513 18.0187 21.412 17.5987 21.412 17.188V15.228H22.98V16.908C22.98 17.2347 22.9567 17.5473 22.91 17.846C22.8727 18.1447 22.8213 18.434 22.756 18.714L26.018 21.892ZM39.8865 16.628C39.8865 17.0293 39.7979 17.398 39.6205 17.734C39.4525 18.0607 39.2239 18.3453 38.9345 18.588C38.6359 18.8213 38.2812 19.0033 37.8705 19.134C37.4692 19.2647 37.0305 19.33 36.5545 19.33C36.1065 19.33 35.6819 19.2693 35.2805 19.148C34.8885 19.0267 34.5385 18.8493 34.2305 18.616C33.9319 18.3827 33.6939 18.1027 33.5165 17.776C33.3485 17.44 33.2645 17.062 33.2645 16.642C33.2645 16.222 33.3485 15.844 33.5165 15.508C33.6845 15.1627 33.9179 14.8687 34.2165 14.626C34.5059 14.3833 34.8512 14.1967 35.2525 14.066C35.6539 13.9353 36.0879 13.87 36.5545 13.87C37.0119 13.87 37.4412 13.9353 37.8425 14.066C38.2532 14.1967 38.6079 14.3833 38.9065 14.626C39.2052 14.8593 39.4432 15.1487 39.6205 15.494C39.7979 15.83 39.8865 16.208 39.8865 16.628ZM42.6865 21.136H37.3805V21.836H40.0125V25.126H34.9305V25.756H40.3485V27.184H33.3905V23.768H38.4585V23.208H33.3205V21.836H35.8825V21.136H30.6885V19.736H42.6865V21.136ZM38.3465 16.614C38.3465 16.1753 38.1692 15.83 37.8145 15.578C37.4599 15.326 37.0399 15.2 36.5545 15.2C36.0505 15.2 35.6259 15.326 35.2805 15.578C34.9445 15.8207 34.7765 16.166 34.7765 16.614C34.7765 17.0433 34.9445 17.3793 35.2805 17.622C35.6259 17.8647 36.0505 17.986 36.5545 17.986C37.0399 17.986 37.4599 17.874 37.8145 17.65C38.1692 17.426 38.3465 17.0807 38.3465 16.614ZM52.66 19.918H45.884V14.402H52.576V15.816H47.368V16.418H52.408V17.846H47.368V18.504H52.66V19.918ZM55.292 22.06H43.308V20.646H55.292V22.06ZM52.688 27.338H51.19V24.272H45.828V22.844H52.688V27.338ZM66.3575 21.122H64.8875V19.764H62.4795V18.364H64.8875V17.356H62.4795V15.942H64.8875V13.968H66.3575V21.122ZM62.0315 20.478H56.3335V14.654H57.8175V16.334H60.5335V14.654H62.0315V20.478ZM66.2455 27.184H59.3715V23.67H64.3695V22.942H59.3015V21.528H65.9095V25.042H60.9395V25.77H66.2455V27.184ZM60.5335 19.064V17.748H57.8175V19.064H60.5335ZM78.546 26.708H77.048V13.968H78.546V26.708ZM75.48 21.934L74.458 22.998L71.63 20.212C71.266 20.884 70.8227 21.4533 70.3 21.92C69.7867 22.3773 69.264 22.7507 68.732 23.04L67.738 21.906C68.3073 21.598 68.788 21.2573 69.18 20.884C69.5813 20.5107 69.908 20.1233 70.16 19.722C70.4027 19.3113 70.58 18.896 70.692 18.476C70.8133 18.056 70.874 17.6407 70.874 17.23V15.228H72.442V16.95C72.442 17.2767 72.4187 17.5893 72.372 17.888C72.3347 18.1773 72.2833 18.4573 72.218 18.728L75.48 21.934Z" fill="black"/>
<path d="M45.563 51.444H19.306V48.871H30.962V45.74H24.886V36.099H27.676V43.229H39.797V45.74H33.783V48.871H45.563V51.444ZM39.425 59.132C39.425 60 39.239 60.7853 38.867 61.488C38.5157 62.2113 38.0197 62.8313 37.379 63.348C36.7383 63.8647 35.984 64.2677 35.116 64.557C34.248 64.8463 33.3077 64.991 32.295 64.991C31.3237 64.991 30.4143 64.8567 29.567 64.588C28.7197 64.3193 27.9757 63.937 27.335 63.441C26.715 62.9243 26.219 62.3043 25.847 61.581C25.475 60.8783 25.289 60.0723 25.289 59.163C25.289 58.2743 25.4647 57.458 25.816 56.714C26.1673 55.97 26.6633 55.3397 27.304 54.823C27.924 54.3063 28.6577 53.9033 29.505 53.614C30.373 53.3247 31.303 53.18 32.295 53.18C33.287 53.18 34.217 53.3247 35.085 53.614C35.953 53.9033 36.7073 54.3063 37.348 54.823C37.9887 55.3397 38.495 55.97 38.867 56.714C39.239 57.4373 39.425 58.2433 39.425 59.132ZM36.542 59.101C36.542 58.047 36.1287 57.1997 35.302 56.559C34.4753 55.9183 33.473 55.598 32.295 55.598C31.117 55.598 30.125 55.9183 29.319 56.559C28.513 57.179 28.11 58.0263 28.11 59.101C28.11 60.155 28.5027 60.992 29.288 61.612C30.094 62.232 31.0963 62.542 32.295 62.542C33.473 62.542 34.4753 62.2423 35.302 61.643C36.1287 61.0643 36.542 60.217 36.542 59.101ZM70.0651 51.63H67.3061V44.314H61.6641V41.741H67.3061V35.603H70.0651V51.63ZM60.7031 43.353C60.7031 44.2623 60.5171 45.1097 60.1451 45.895C59.7731 46.6803 59.2771 47.352 58.6571 47.91C58.0371 48.4887 57.3138 48.9433 56.4871 49.274C55.6604 49.584 54.7924 49.739 53.8831 49.739C52.9738 49.739 52.1161 49.5737 51.3101 49.243C50.5041 48.9123 49.8014 48.468 49.2021 47.91C48.6028 47.3313 48.1274 46.6597 47.7761 45.895C47.4248 45.1097 47.2491 44.2623 47.2491 43.353C47.2491 42.4437 47.4144 41.6067 47.7451 40.842C48.0964 40.0567 48.5718 39.385 49.1711 38.827C49.7498 38.2483 50.4421 37.804 51.2481 37.494C52.0748 37.1633 52.9531 36.998 53.8831 36.998C54.8338 36.998 55.7224 37.153 56.5491 37.463C57.3758 37.773 58.0991 38.207 58.7191 38.765C59.3391 39.323 59.8248 39.9947 60.1761 40.78C60.5274 41.5447 60.7031 42.4023 60.7031 43.353ZM69.4451 64.557H55.0611V52.746H57.9131V56.187H66.5931V52.746H69.4451V64.557ZM57.9131 43.353C57.9131 42.2577 57.5204 41.3483 56.7351 40.625C55.9498 39.9017 54.9991 39.54 53.8831 39.54C52.7878 39.54 51.8681 39.9017 51.1241 40.625C50.3801 41.3483 50.0081 42.2473 50.0081 43.322C50.0081 44.438 50.3801 45.3577 51.1241 46.081C51.8888 46.8043 52.8084 47.166 53.8831 47.166C54.9578 47.166 55.8981 46.8147 56.7041 46.112C57.5101 45.3887 57.9131 44.469 57.9131 43.353ZM66.5931 61.984V58.76H57.9131V61.984H66.5931ZM95.969 63.534H93.179V35.603H95.969V63.534ZM87.692 39.571C87.5887 41.8443 87.103 43.8903 86.235 45.709C85.3877 47.5277 84.3647 49.1293 83.166 50.514C81.9467 51.8987 80.6447 53.0663 79.26 54.017C77.8753 54.9677 76.594 55.691 75.416 56.187L73.401 54.203C74.7857 53.6243 76.0877 52.9113 77.307 52.064C78.547 51.2167 79.6527 50.2763 80.624 49.243C81.616 48.2097 82.4427 47.0937 83.104 45.895C83.786 44.6963 84.2613 43.446 84.53 42.144H75.292V39.571H87.692ZM121.47 44.438L119.703 46.546C119.703 46.546 119.6 46.4737 119.393 46.329C119.186 46.1843 118.907 45.9983 118.556 45.771C118.225 45.523 117.843 45.244 117.409 44.934C116.975 44.624 116.541 44.314 116.107 44.004C115.652 43.6733 115.208 43.353 114.774 43.043C114.34 42.733 113.958 42.4643 113.627 42.237C113.276 41.989 112.997 41.7927 112.79 41.648C112.604 41.5033 112.511 41.431 112.511 41.431C112.036 42.0923 111.488 42.7123 110.868 43.291C110.269 43.849 109.649 44.3553 109.008 44.81C108.347 45.244 107.685 45.616 107.024 45.926C106.363 46.236 105.743 46.4633 105.164 46.608L103.366 44.438C104.668 44.066 105.805 43.5803 106.776 42.981C107.768 42.361 108.584 41.679 109.225 40.935C109.886 40.2117 110.372 39.4573 110.682 38.672C111.013 37.8867 111.178 37.1427 111.178 36.44V35.479H114.061V36.874C114.061 37.246 114.03 37.618 113.968 37.99C113.906 38.3413 113.823 38.6823 113.72 39.013L121.47 44.438ZM125.996 50.421H114.247V52.87H119.951V59.876H108.729V61.953H120.602V64.619H105.815V57.365H117.099V55.412H105.66V52.87H111.457V50.421H99.7699V47.879H125.996V50.421ZM152.42 55.66H149.661V35.603H152.42V55.66ZM146.964 54.451H144.174V44.655H138.966V42.082H144.174V36.254H146.964V54.451ZM141.818 49.987L139.896 51.909L134.657 46.546C134.099 47.6413 133.324 48.6953 132.332 49.708C131.361 50.7 130.296 51.506 129.139 52.126L127.279 50.08C128.023 49.77 128.757 49.305 129.48 48.685C130.224 48.065 130.896 47.3107 131.495 46.422C132.074 45.554 132.549 44.562 132.921 43.446C133.293 42.33 133.479 41.1107 133.479 39.788V37.184H136.362V39.788C136.362 40.4493 136.3 41.1623 136.176 41.927C136.073 42.671 135.928 43.3117 135.742 43.849L141.818 49.987ZM152.172 64.309H137.137V54.699H139.927V61.705H152.172V64.309ZM178.658 63.534H175.868V48.313H170.35V45.709H175.868V35.603H178.658V63.534ZM170.753 55.319H157.02V39.323H169.327V41.927H159.779V45.833H168.986V48.437H159.779V52.715H170.753V55.319Z" fill="#3F3434"/>
</svg>
