<svg xmlns="http://www.w3.org/2000/svg" viewBox="0 0 325.85 95.44"><defs><style>.cls-1{fill:none;stroke:#d1d3d4;stroke-miterlimit:10;}.cls-2{fill:#2fb44a;}.cls-3{fill:#656565;}</style></defs><title>Asset 1</title><g id="Layer_2" data-name="Layer 2"><g id="Layer_1-2" data-name="Layer 1"><rect class="cls-1" x="0.5" y="0.5" width="324.85" height="94.44"/><path class="cls-2" d="M19.91,32.93H32.33S43.59,50.37,43.94,50.84s.37,0,.37,0a31.15,31.15,0,0,1-1.08-8.23V32.93H55.59V65.24H43.23s-11-16.52-11.38-17-.38,0-.38,0a21.87,21.87,0,0,1,.81,6.47v10.5H19.91Z"/><path class="cls-2" d="M75.09,53.54,76.77,47a28.45,28.45,0,0,0,.62-3.23.26.26,0,0,1,.52,0A28,28,0,0,0,78.56,47l1.72,6.59Zm-2.32,7.67h9.78l1.18,4H97.42L84.72,32.93H70.41L58.05,65.24H71.74Z"/><path class="cls-2" d="M130,32.93,116.21,65.24H105.26L91.48,32.93H105l4.72,14.7a35.31,35.31,0,0,1,.9,5.06.23.23,0,0,0,.46,0,36.32,36.32,0,0,1,.89-5.06l4.55-14.7Z"/><path class="cls-2" d="M132.68,32.93h23.93v8.83h-10.9v3.08h10v8.4h-10v3.17H157v8.83H132.68Z"/><path class="cls-2" d="M174.91,41.65h1c2.22,0,4.16.29,4.16,2.78s-2.13,2.7-4.25,2.7h-.9ZM162.26,65.13h12.65V54.76s.08-.37.31,0l5.58,10.37h14.93L188,54.63a9.79,9.79,0,0,0-2.17-1.93c-.26-.19,0-.26,0-.26,4.81-1.46,6.9-3.51,6.9-8.4,0-8.13-6.81-11.22-14.83-11.22H162.26Z"/><path class="cls-3" d="M227,22.49v5s2.44.33,2.44,3.42h-9.92s0-7.48-7.48-7.48v5.2s2.44.16,2.44,4.07V44h19.84V31.27S235.15,22.49,227,22.49Zm2.44,17h-9.92V35.86h9.92Z"/><rect class="cls-3" x="208.16" y="46.24" width="32.36" height="4.88"/><polygon class="cls-3" points="214.34 54.86 234.36 54.86 234.36 67.38 219.54 67.38 219.54 70.95 234.36 70.95 234.36 75.67 214.34 75.67 214.34 62.66 229.46 62.66 229.46 59.73 214.34 59.73 214.34 54.86"/><polygon class="cls-3" points="249.14 29.97 269.31 29.97 269.31 43.96 254.51 43.96 254.51 47.37 269.31 47.37 269.31 52.41 262.31 52.41 262.31 57.29 274.35 57.29 274.35 62.01 243.61 62.01 243.61 57.13 257.11 57.13 257.11 52.41 249.3 52.41 249.3 38.27 264.26 38.27 264.26 34.69 249.3 34.69 249.14 29.97"/><polygon class="cls-3" points="283.29 32.41 283.29 37.45 298.25 37.45 298.25 51.11 304.27 51.11 304.27 32.41 283.29 32.41"/><rect class="cls-3" x="278.25" y="55.99" width="31.22" height="5.21"/></g></g></svg>